<svg width="406" height="33" viewBox="0 0 406 33" fill="none" xmlns="http://www.w3.org/2000/svg">
<g clip-path="url(#clip0_88_1614)">
<path d="M25.4156 26.3905H10.5998L8.27705 31.7803H0.78125L14.4152 0.615234H22.0418L35.6308 31.7803H27.7424L25.4197 26.3905H25.4156ZM22.7411 20.1665L18.0056 9.162L13.2702 20.1665H22.737H22.7411Z" fill="white"/>
<path d="M57.2189 20.7348L65.1114 0.660156H75.5433V31.7843H68.3542V8.24183L59.235 31.8252H54.2378L45.2534 8.41768V31.7802H38.416V0.660156H49.3305L57.2189 20.7348Z" fill="white"/>
<path d="M81.7588 0.660156H107.796V6.79829H89.2096V12.4089H104.471V18.6779H89.2096V25.3395H108.205V31.7843H81.7588V0.660156Z" fill="white"/>
<path d="M113.01 0.660156H131.244C138.127 0.660156 142.335 3.99299 142.335 10.4337C142.335 14.7725 140.143 17.7537 136.417 19.1114L143.431 31.7802H135.583L129.007 19.9456H120.461V31.7802H113.01V0.660156ZM120.461 7.06001V13.6807H130.455C133.215 13.6807 134.708 12.5847 134.708 10.4378C134.708 8.07008 133.26 7.0641 130.455 7.0641H120.461V7.06001Z" fill="white"/>
<path d="M147.319 0.660156H154.77V31.7843H147.319V0.660156Z" fill="white"/>
<path d="M159.321 16.2204C159.321 6.97022 165.942 0.132812 175.278 0.132812C185.403 0.132812 189.26 7.10108 190.008 10.6547H182.426C181.723 9.42793 179.576 6.83937 175.282 6.83937C170.109 6.83937 166.952 11.0923 166.952 16.2204C166.952 21.3484 170.109 25.6014 175.282 25.6014C179.887 25.6014 181.813 22.9719 182.471 21.786H190.012C189.399 24.898 185.759 32.3079 175.282 32.3079C165.946 32.3079 159.325 25.4705 159.325 16.2204H159.321Z" fill="white"/>
<path d="M214.582 26.3905H199.766L197.443 31.7803H189.947L203.577 0.615234H211.204L224.793 31.7803H216.904L214.582 26.3905ZM211.907 20.1665L207.172 9.162L202.436 20.1665H211.903H211.907Z" fill="white"/>
<path d="M257.867 31.8702H251.819L234.856 10.3479V31.7843H227.581V0.660156H236.042L250.772 19.7288V0.660156H257.875V31.8702H257.867Z" fill="white"/>
<path d="M311.746 0.660156H329.719C336.511 0.660156 340.151 3.99299 340.151 9.12105C340.151 12.3639 337.959 14.4699 335.767 15.3451C338.486 16.2652 340.94 18.7638 340.94 22.8858C340.94 28.2756 337.215 31.7843 330.026 31.7843H311.746V0.660156ZM319.066 6.66334V12.8015H328.533C331.077 12.8015 332.565 11.8364 332.565 9.73445C332.565 7.63252 331.117 6.66743 328.533 6.66743H319.066V6.66334ZM319.066 18.8087V25.777H328.709C331.776 25.777 333.354 24.5502 333.354 22.2683C333.354 19.9865 331.776 18.8047 328.709 18.8047H319.066V18.8087Z" fill="white"/>
<path d="M342.928 0.660156H373.921V7.14588H362.131V31.7802H354.721V7.14588H342.932V0.660156H342.928Z" fill="white"/>
<path d="M375.229 16.2204C375.229 6.97022 381.85 0.132812 391.186 0.132812C401.311 0.132812 405.168 7.10108 405.916 10.6547H398.334C397.631 9.42793 395.484 6.83937 391.19 6.83937C386.017 6.83937 382.86 11.0923 382.86 16.2204C382.86 21.3484 386.017 25.6014 391.19 25.6014C395.795 25.6014 397.721 22.9719 398.379 21.786H405.92C405.307 24.898 401.667 32.3079 391.19 32.3079C381.854 32.3079 375.234 25.4705 375.234 16.2204H375.229Z" fill="white"/>
<path d="M269.592 31.7793L274.037 31.7793L274.037 27.3342L269.592 27.3342L269.592 31.7793Z" fill="#2D4CFF"/>
<path d="M269.592 22.8887L274.037 22.8887L274.037 18.4435L269.592 18.4435L269.592 22.8887Z" fill="#2D4CFF"/>
<path d="M269.592 13.9961L274.037 13.9961L274.037 9.55096L269.592 9.55096L269.592 13.9961Z" fill="#2D4CFF"/>
<path d="M269.592 5.10352L274.037 5.10352L274.037 0.658378L269.592 0.658378L269.592 5.10352Z" fill="#2D4CFF"/>
<path d="M274.041 31.7793L300.139 31.7793L300.139 27.3342L274.041 27.3342L274.041 31.7793Z" fill="#FF2C2F"/>
<path d="M274.041 22.8887L300.139 22.8887L300.139 18.4435L274.041 18.4435L274.041 22.8887Z" fill="#FF2C2F"/>
<path d="M274.041 13.9961L300.139 13.9961L300.139 9.55096L274.041 9.55095L274.041 13.9961Z" fill="#FF2C2F"/>
<path d="M274.041 5.10351L300.139 5.10352L300.139 0.658378L274.041 0.658376L274.041 5.10351Z" fill="#FF2C2F"/>
</g>
<defs>
<clipPath id="clip0_88_1614">
<rect width="406" height="32.6417" fill="white"/>
</clipPath>
</defs>
</svg>
