<svg width="150" height="36" viewBox="0 0 150 36" fill="none" xmlns="http://www.w3.org/2000/svg">
<g clip-path="url(#clip0_4_38481)">
<path d="M109.554 8.80285C109.877 8.26989 110.679 8.39821 110.821 9.00559L111.625 12.4276C111.728 12.866 111.397 13.2865 110.95 13.2865H108.075C107.534 13.2865 107.201 12.6901 107.482 12.2248L109.554 8.80285Z" fill="#F0BB31"/>
<path d="M109.554 8.80285C109.877 8.26989 110.679 8.39821 110.821 9.00559L111.625 12.4276C111.728 12.866 111.397 13.2865 110.95 13.2865H108.075C107.534 13.2865 107.201 12.6901 107.482 12.2248L109.554 8.80285Z" fill="url(#paint0_linear_4_38481)"/>
<path d="M111.237 5.35188C111.065 4.59634 112.075 4.16943 112.501 4.81776L117.356 12.2117C117.659 12.674 117.327 13.2872 116.772 13.2872H113.6C113.274 13.2872 112.991 13.0625 112.919 12.7459L111.237 5.35188Z" fill="#F0BB31"/>
<path d="M111.237 5.35188C111.065 4.59634 112.075 4.16943 112.501 4.81776L117.356 12.2117C117.659 12.674 117.327 13.2872 116.772 13.2872H113.6C113.274 13.2872 112.991 13.0625 112.919 12.7459L111.237 5.35188Z" fill="url(#paint1_linear_4_38481)"/>
<path d="M31.5 30.1912H43.6778V26.7866H35.855V11.0235H31.5V30.1912Z" fill="white"/>
<path d="M50.6083 30.4861C52.9202 30.4861 54.3449 29.4138 55.0707 27.9929V30.1912H58.9419V16.1706H55.0707V24.4007C55.0707 26.4649 53.7804 27.4836 52.1405 27.4836C50.4738 27.4836 49.6942 26.5721 49.6942 24.6688V16.1706H45.8232V25.2049C45.8232 28.8776 47.8662 30.4861 50.6083 30.4861Z" fill="white"/>
<path d="M61.1274 30.1912H65.133L68.1708 25.473L71.128 30.1912H75.6172L70.6709 22.7386L75.1601 16.1706H71.128L68.5472 20.3795L65.9126 16.1706H61.45L65.9395 23.0335L61.1274 30.1912Z" fill="white"/>
<path d="M83.3105 27.5372C81.1061 27.5372 79.8694 25.9287 79.8694 23.2479V23.0335C79.8694 20.3527 81.1598 18.7978 83.3105 18.7978C85.488 18.7978 86.7515 20.4063 86.7515 23.0871V23.2748C86.7515 25.9287 85.488 27.5372 83.3105 27.5372ZM83.2836 30.4861C87.5042 30.4861 90.7031 27.6712 90.7031 23.2479V23.0335C90.7031 18.6638 87.5311 15.8489 83.3105 15.8489C79.0898 15.8489 75.891 18.7174 75.891 23.1139V23.3284C75.891 27.698 79.0898 30.4861 83.2836 30.4861Z" fill="white"/>
<path d="M93.3163 30.1912H97.2144V23.1675C97.2144 20.4867 98.8811 19.5484 101.758 19.5752V15.9562C99.4726 15.983 98.1015 16.9749 97.2144 18.8514V16.1706H93.3163V30.1912Z" fill="white"/>
</g>
<defs>
<linearGradient id="paint0_linear_4_38481" x1="109.512" y1="8.46766" x2="109.512" y2="13.2865" gradientUnits="userSpaceOnUse">
<stop stop-color="#E5AA12"/>
<stop offset="1" stop-color="white" stop-opacity="0"/>
</linearGradient>
<linearGradient id="paint1_linear_4_38481" x1="114.344" y1="4.5" x2="114.344" y2="13.2872" gradientUnits="userSpaceOnUse">
<stop stop-color="#E5AA12"/>
<stop offset="1" stop-color="white" stop-opacity="0"/>
</linearGradient>
<clipPath id="clip0_4_38481">
<rect width="86.25" height="26.25" fill="white" transform="translate(31.5 4.5)"/>
</clipPath>
</defs>
</svg>
